<svg width="26" height="30" viewBox="0 0 26 30" fill="none" xmlns="http://www.w3.org/2000/svg">
<g filter="url(#filter0_d_39_274)">
<path d="M9 8L9 7C9 4.79086 10.7909 3 13 3V3C15.2091 3 17 4.79086 17 7L17 8" stroke="white" stroke-width="2" stroke-linecap="round"/>
</g>
<g filter="url(#filter1_d_39_274)">
<path fill-rule="evenodd" clip-rule="evenodd" d="M4.58579 7.58579C4 8.17157 4 9.11438 4 11V14C4 17.7712 4 19.6569 5.17157 20.8284C6.34315 22 8.22876 22 12 22H14C17.7712 22 19.6569 22 20.8284 20.8284C22 19.6569 22 17.7712 22 14V11C22 9.11438 22 8.17157 21.4142 7.58579C20.8284 7 19.8856 7 18 7H8C6.11438 7 5.17157 7 4.58579 7.58579ZM11 12C11 11.4477 10.5523 11 10 11C9.44772 11 9 11.4477 9 12V14C9 14.5523 9.44772 15 10 15C10.5523 15 11 14.5523 11 14V12ZM17 12C17 11.4477 16.5523 11 16 11C15.4477 11 15 11.4477 15 12V14C15 14.5523 15.4477 15 16 15C16.5523 15 17 14.5523 17 14V12Z" fill="white"/>
</g>
<defs>
<filter id="filter0_d_39_274" x="4" y="2" width="18" height="15" filterUnits="userSpaceOnUse" color-interpolation-filters="sRGB">
<feFlood flood-opacity="0" result="BackgroundImageFix"/>
<feColorMatrix in="SourceAlpha" type="matrix" values="0 0 0 0 0 0 0 0 0 0 0 0 0 0 0 0 0 0 127 0" result="hardAlpha"/>
<feOffset dy="4"/>
<feGaussianBlur stdDeviation="2"/>
<feComposite in2="hardAlpha" operator="out"/>
<feColorMatrix type="matrix" values="0 0 0 0 0 0 0 0 0 0 0 0 0 0 0 0 0 0 0.25 0"/>
<feBlend mode="normal" in2="BackgroundImageFix" result="effect1_dropShadow_39_274"/>
<feBlend mode="normal" in="SourceGraphic" in2="effect1_dropShadow_39_274" result="shape"/>
</filter>
<filter id="filter1_d_39_274" x="0" y="7" width="26" height="23" filterUnits="userSpaceOnUse" color-interpolation-filters="sRGB">
<feFlood flood-opacity="0" result="BackgroundImageFix"/>
<feColorMatrix in="SourceAlpha" type="matrix" values="0 0 0 0 0 0 0 0 0 0 0 0 0 0 0 0 0 0 127 0" result="hardAlpha"/>
<feOffset dy="4"/>
<feGaussianBlur stdDeviation="2"/>
<feComposite in2="hardAlpha" operator="out"/>
<feColorMatrix type="matrix" values="0 0 0 0 0 0 0 0 0 0 0 0 0 0 0 0 0 0 0.25 0"/>
<feBlend mode="normal" in2="BackgroundImageFix" result="effect1_dropShadow_39_274"/>
<feBlend mode="normal" in="SourceGraphic" in2="effect1_dropShadow_39_274" result="shape"/>
</filter>
</defs>
</svg>
